<mxfile host="app.diagrams.net" modified="2022-08-31T07:38:30.692Z" agent="5.0 (Windows NT 10.0; Win64; x64) AppleWebKit/537.36 (KHTML, like Gecko) Chrome/104.0.0.0 Safari/537.36" etag="N_7RBdpibLCsW0p4y9Ym" version="20.2.7" type="github">
  <diagram id="JVOCGYdmqbSZI_cef5GE" name="Page-1">
    <mxGraphModel dx="1851" dy="1681" grid="1" gridSize="10" guides="1" tooltips="1" connect="1" arrows="1" fold="1" page="1" pageScale="1" pageWidth="850" pageHeight="1100" math="0" shadow="0">
      <root>
        <mxCell id="0" />
        <mxCell id="1" parent="0" />
        <mxCell id="965MxLI2wxXJbdmRq4qb-1" value="Tests" style="rhombus;whiteSpace=wrap;html=1;" parent="1" vertex="1">
          <mxGeometry x="360" y="250" width="80" height="80" as="geometry" />
        </mxCell>
        <mxCell id="965MxLI2wxXJbdmRq4qb-2" value="Deploys" style="rhombus;whiteSpace=wrap;html=1;" parent="1" vertex="1">
          <mxGeometry x="360" y="410" width="80" height="80" as="geometry" />
        </mxCell>
        <mxCell id="965MxLI2wxXJbdmRq4qb-3" value="Checks" style="rhombus;whiteSpace=wrap;html=1;" parent="1" vertex="1">
          <mxGeometry x="360" y="90" width="80" height="80" as="geometry" />
        </mxCell>
        <mxCell id="s3N5RdAohSlhjSKMq-4z-1" value="Software Developer" style="rounded=0;whiteSpace=wrap;html=1;" parent="1" vertex="1">
          <mxGeometry x="160" y="100" width="120" height="60" as="geometry" />
        </mxCell>
        <mxCell id="s3N5RdAohSlhjSKMq-4z-2" value="Quality Assurance" style="rounded=0;whiteSpace=wrap;html=1;" parent="1" vertex="1">
          <mxGeometry x="170" y="260" width="120" height="60" as="geometry" />
        </mxCell>
        <mxCell id="s3N5RdAohSlhjSKMq-4z-3" value="DevOps" style="rounded=0;whiteSpace=wrap;html=1;" parent="1" vertex="1">
          <mxGeometry x="160" y="420" width="120" height="60" as="geometry" />
        </mxCell>
        <mxCell id="s3N5RdAohSlhjSKMq-4z-8" value="Development Activities" style="rounded=0;whiteSpace=wrap;html=1;" parent="1" vertex="1">
          <mxGeometry x="580" y="100" width="120" height="60" as="geometry" />
        </mxCell>
        <mxCell id="s3N5RdAohSlhjSKMq-4z-9" value="Deployment Activities" style="rounded=0;whiteSpace=wrap;html=1;" parent="1" vertex="1">
          <mxGeometry x="600" y="420" width="120" height="60" as="geometry" />
        </mxCell>
        <mxCell id="s3N5RdAohSlhjSKMq-4z-10" value="QA Activities" style="rounded=0;whiteSpace=wrap;html=1;" parent="1" vertex="1">
          <mxGeometry x="580" y="260" width="120" height="60" as="geometry" />
        </mxCell>
        <mxCell id="s3N5RdAohSlhjSKMq-4z-13" value="" style="endArrow=none;html=1;rounded=0;exitX=1;exitY=0.5;exitDx=0;exitDy=0;entryX=0;entryY=0.5;entryDx=0;entryDy=0;" parent="1" source="s3N5RdAohSlhjSKMq-4z-1" target="965MxLI2wxXJbdmRq4qb-3" edge="1">
          <mxGeometry width="50" height="50" relative="1" as="geometry">
            <mxPoint x="400" y="320" as="sourcePoint" />
            <mxPoint x="450" y="270" as="targetPoint" />
          </mxGeometry>
        </mxCell>
        <mxCell id="s3N5RdAohSlhjSKMq-4z-14" value="" style="endArrow=none;html=1;rounded=0;entryX=0;entryY=0.5;entryDx=0;entryDy=0;exitX=1;exitY=0.5;exitDx=0;exitDy=0;" parent="1" source="965MxLI2wxXJbdmRq4qb-3" target="s3N5RdAohSlhjSKMq-4z-8" edge="1">
          <mxGeometry width="50" height="50" relative="1" as="geometry">
            <mxPoint x="400" y="320" as="sourcePoint" />
            <mxPoint x="450" y="270" as="targetPoint" />
          </mxGeometry>
        </mxCell>
        <mxCell id="s3N5RdAohSlhjSKMq-4z-15" value="" style="endArrow=none;html=1;rounded=0;exitX=1;exitY=0.5;exitDx=0;exitDy=0;entryX=0;entryY=0.5;entryDx=0;entryDy=0;" parent="1" source="s3N5RdAohSlhjSKMq-4z-2" target="965MxLI2wxXJbdmRq4qb-1" edge="1">
          <mxGeometry width="50" height="50" relative="1" as="geometry">
            <mxPoint x="400" y="320" as="sourcePoint" />
            <mxPoint x="450" y="270" as="targetPoint" />
          </mxGeometry>
        </mxCell>
        <mxCell id="s3N5RdAohSlhjSKMq-4z-16" value="" style="endArrow=none;html=1;rounded=0;exitX=1;exitY=0.5;exitDx=0;exitDy=0;" parent="1" source="965MxLI2wxXJbdmRq4qb-1" target="s3N5RdAohSlhjSKMq-4z-10" edge="1">
          <mxGeometry width="50" height="50" relative="1" as="geometry">
            <mxPoint x="400" y="320" as="sourcePoint" />
            <mxPoint x="450" y="270" as="targetPoint" />
          </mxGeometry>
        </mxCell>
        <mxCell id="s3N5RdAohSlhjSKMq-4z-17" value="" style="endArrow=none;html=1;rounded=0;exitX=1;exitY=0.5;exitDx=0;exitDy=0;entryX=0;entryY=0.5;entryDx=0;entryDy=0;" parent="1" source="s3N5RdAohSlhjSKMq-4z-3" target="965MxLI2wxXJbdmRq4qb-2" edge="1">
          <mxGeometry width="50" height="50" relative="1" as="geometry">
            <mxPoint x="400" y="320" as="sourcePoint" />
            <mxPoint x="450" y="270" as="targetPoint" />
          </mxGeometry>
        </mxCell>
        <mxCell id="s3N5RdAohSlhjSKMq-4z-18" value="" style="endArrow=none;html=1;rounded=0;exitX=1;exitY=0.5;exitDx=0;exitDy=0;" parent="1" source="965MxLI2wxXJbdmRq4qb-2" target="s3N5RdAohSlhjSKMq-4z-9" edge="1">
          <mxGeometry width="50" height="50" relative="1" as="geometry">
            <mxPoint x="400" y="320" as="sourcePoint" />
            <mxPoint x="450" y="270" as="targetPoint" />
          </mxGeometry>
        </mxCell>
        <mxCell id="s3N5RdAohSlhjSKMq-4z-25" value="Username" style="ellipse;whiteSpace=wrap;html=1;" parent="1" vertex="1">
          <mxGeometry x="195" y="10" width="70" height="40" as="geometry" />
        </mxCell>
        <mxCell id="s3N5RdAohSlhjSKMq-4z-27" value="Copy of Baseline" style="ellipse;whiteSpace=wrap;html=1;" parent="1" vertex="1">
          <mxGeometry x="530" y="-10" width="70" height="40" as="geometry" />
        </mxCell>
        <mxCell id="s3N5RdAohSlhjSKMq-4z-28" value="Release File label&amp;nbsp;" style="ellipse;whiteSpace=wrap;html=1;" parent="1" vertex="1">
          <mxGeometry x="610" y="-10" width="80" height="40" as="geometry" />
        </mxCell>
        <mxCell id="s3N5RdAohSlhjSKMq-4z-29" value="Unit Test" style="ellipse;whiteSpace=wrap;html=1;" parent="1" vertex="1">
          <mxGeometry x="710" y="-10" width="80" height="40" as="geometry" />
        </mxCell>
        <mxCell id="s3N5RdAohSlhjSKMq-4z-30" value="User ID" style="ellipse;whiteSpace=wrap;html=1;" parent="1" vertex="1">
          <mxGeometry x="95" y="20" width="90" height="40" as="geometry" />
        </mxCell>
        <mxCell id="4a6R4HAodq6OoiIso3Kq-1" value="Code Review" style="ellipse;whiteSpace=wrap;html=1;" vertex="1" parent="1">
          <mxGeometry x="770" y="40" width="70" height="40" as="geometry" />
        </mxCell>
        <mxCell id="4a6R4HAodq6OoiIso3Kq-3" value="User ID" style="ellipse;whiteSpace=wrap;html=1;" vertex="1" parent="1">
          <mxGeometry x="100" y="180" width="80" height="40" as="geometry" />
        </mxCell>
        <mxCell id="4a6R4HAodq6OoiIso3Kq-4" value="" style="endArrow=none;html=1;rounded=0;entryX=0.572;entryY=-0.053;entryDx=0;entryDy=0;exitX=0.62;exitY=1.02;exitDx=0;exitDy=0;exitPerimeter=0;entryPerimeter=0;" edge="1" parent="1" source="s3N5RdAohSlhjSKMq-4z-30" target="s3N5RdAohSlhjSKMq-4z-1">
          <mxGeometry width="50" height="50" relative="1" as="geometry">
            <mxPoint x="400" y="300" as="sourcePoint" />
            <mxPoint x="450" y="250" as="targetPoint" />
          </mxGeometry>
        </mxCell>
        <mxCell id="4a6R4HAodq6OoiIso3Kq-5" value="" style="endArrow=none;html=1;rounded=0;entryX=0.838;entryY=-0.053;entryDx=0;entryDy=0;entryPerimeter=0;" edge="1" parent="1" source="s3N5RdAohSlhjSKMq-4z-25" target="s3N5RdAohSlhjSKMq-4z-1">
          <mxGeometry width="50" height="50" relative="1" as="geometry">
            <mxPoint x="400" y="300" as="sourcePoint" />
            <mxPoint x="640" y="100" as="targetPoint" />
          </mxGeometry>
        </mxCell>
        <mxCell id="4a6R4HAodq6OoiIso3Kq-7" value="" style="endArrow=none;html=1;rounded=0;entryX=0.5;entryY=0;entryDx=0;entryDy=0;exitX=0.654;exitY=1.01;exitDx=0;exitDy=0;exitPerimeter=0;" edge="1" parent="1" source="s3N5RdAohSlhjSKMq-4z-27" target="s3N5RdAohSlhjSKMq-4z-8">
          <mxGeometry width="50" height="50" relative="1" as="geometry">
            <mxPoint x="400" y="300" as="sourcePoint" />
            <mxPoint x="450" y="250" as="targetPoint" />
          </mxGeometry>
        </mxCell>
        <mxCell id="4a6R4HAodq6OoiIso3Kq-8" value="" style="endArrow=none;html=1;rounded=0;entryX=0;entryY=1;entryDx=0;entryDy=0;exitX=1;exitY=0.5;exitDx=0;exitDy=0;" edge="1" parent="1" source="s3N5RdAohSlhjSKMq-4z-8" target="4a6R4HAodq6OoiIso3Kq-1">
          <mxGeometry width="50" height="50" relative="1" as="geometry">
            <mxPoint x="400" y="300" as="sourcePoint" />
            <mxPoint x="450" y="250" as="targetPoint" />
          </mxGeometry>
        </mxCell>
        <mxCell id="4a6R4HAodq6OoiIso3Kq-9" value="" style="endArrow=none;html=1;rounded=0;exitX=0.75;exitY=0;exitDx=0;exitDy=0;" edge="1" parent="1" source="s3N5RdAohSlhjSKMq-4z-8" target="s3N5RdAohSlhjSKMq-4z-29">
          <mxGeometry width="50" height="50" relative="1" as="geometry">
            <mxPoint x="400" y="300" as="sourcePoint" />
            <mxPoint x="450" y="250" as="targetPoint" />
          </mxGeometry>
        </mxCell>
        <mxCell id="4a6R4HAodq6OoiIso3Kq-10" value="" style="endArrow=none;html=1;rounded=0;entryX=0.5;entryY=1;entryDx=0;entryDy=0;exitX=0.585;exitY=-0.027;exitDx=0;exitDy=0;exitPerimeter=0;" edge="1" parent="1" source="s3N5RdAohSlhjSKMq-4z-8" target="s3N5RdAohSlhjSKMq-4z-28">
          <mxGeometry width="50" height="50" relative="1" as="geometry">
            <mxPoint x="400" y="300" as="sourcePoint" />
            <mxPoint x="450" y="250" as="targetPoint" />
          </mxGeometry>
        </mxCell>
        <mxCell id="4a6R4HAodq6OoiIso3Kq-11" value="Software Stability" style="ellipse;whiteSpace=wrap;html=1;" vertex="1" parent="1">
          <mxGeometry x="765" y="240" width="75" height="50" as="geometry" />
        </mxCell>
        <mxCell id="4a6R4HAodq6OoiIso3Kq-12" value="User Name" style="ellipse;whiteSpace=wrap;html=1;" vertex="1" parent="1">
          <mxGeometry x="210" y="170" width="80" height="40" as="geometry" />
        </mxCell>
        <mxCell id="4a6R4HAodq6OoiIso3Kq-13" value="Test Cases&amp;nbsp;" style="ellipse;whiteSpace=wrap;html=1;" vertex="1" parent="1">
          <mxGeometry x="710" y="170" width="90" height="50" as="geometry" />
        </mxCell>
        <mxCell id="4a6R4HAodq6OoiIso3Kq-14" value="Remarks" style="ellipse;whiteSpace=wrap;html=1;" vertex="1" parent="1">
          <mxGeometry x="620" y="170" width="80" height="40" as="geometry" />
        </mxCell>
        <mxCell id="4a6R4HAodq6OoiIso3Kq-16" value="" style="endArrow=none;html=1;rounded=0;exitX=0.75;exitY=0;exitDx=0;exitDy=0;" edge="1" parent="1" source="s3N5RdAohSlhjSKMq-4z-2" target="4a6R4HAodq6OoiIso3Kq-3">
          <mxGeometry width="50" height="50" relative="1" as="geometry">
            <mxPoint x="400" y="300" as="sourcePoint" />
            <mxPoint x="450" y="250" as="targetPoint" />
          </mxGeometry>
        </mxCell>
        <mxCell id="4a6R4HAodq6OoiIso3Kq-17" value="" style="endArrow=none;html=1;rounded=0;entryX=1;entryY=0;entryDx=0;entryDy=0;exitX=0.592;exitY=1;exitDx=0;exitDy=0;exitPerimeter=0;" edge="1" parent="1" source="4a6R4HAodq6OoiIso3Kq-12" target="s3N5RdAohSlhjSKMq-4z-2">
          <mxGeometry width="50" height="50" relative="1" as="geometry">
            <mxPoint x="540" y="170" as="sourcePoint" />
            <mxPoint x="590" y="240" as="targetPoint" />
          </mxGeometry>
        </mxCell>
        <mxCell id="4a6R4HAodq6OoiIso3Kq-18" value="" style="endArrow=none;html=1;rounded=0;entryX=0.413;entryY=1.06;entryDx=0;entryDy=0;entryPerimeter=0;exitX=0.5;exitY=0;exitDx=0;exitDy=0;" edge="1" parent="1" source="s3N5RdAohSlhjSKMq-4z-10" target="4a6R4HAodq6OoiIso3Kq-14">
          <mxGeometry width="50" height="50" relative="1" as="geometry">
            <mxPoint x="400" y="300" as="sourcePoint" />
            <mxPoint x="450" y="250" as="targetPoint" />
          </mxGeometry>
        </mxCell>
        <mxCell id="4a6R4HAodq6OoiIso3Kq-19" value="" style="endArrow=none;html=1;rounded=0;entryX=0;entryY=1;entryDx=0;entryDy=0;exitX=0.678;exitY=-0.027;exitDx=0;exitDy=0;exitPerimeter=0;" edge="1" parent="1" source="s3N5RdAohSlhjSKMq-4z-10" target="4a6R4HAodq6OoiIso3Kq-13">
          <mxGeometry width="50" height="50" relative="1" as="geometry">
            <mxPoint x="400" y="300" as="sourcePoint" />
            <mxPoint x="450" y="250" as="targetPoint" />
          </mxGeometry>
        </mxCell>
        <mxCell id="4a6R4HAodq6OoiIso3Kq-20" value="" style="endArrow=none;html=1;rounded=0;exitX=1;exitY=0.5;exitDx=0;exitDy=0;" edge="1" parent="1" source="s3N5RdAohSlhjSKMq-4z-10" target="4a6R4HAodq6OoiIso3Kq-11">
          <mxGeometry width="50" height="50" relative="1" as="geometry">
            <mxPoint x="400" y="300" as="sourcePoint" />
            <mxPoint x="450" y="250" as="targetPoint" />
          </mxGeometry>
        </mxCell>
        <mxCell id="4a6R4HAodq6OoiIso3Kq-21" value="Bugs" style="ellipse;whiteSpace=wrap;html=1;" vertex="1" parent="1">
          <mxGeometry x="760" y="300" width="60" height="50" as="geometry" />
        </mxCell>
        <mxCell id="4a6R4HAodq6OoiIso3Kq-22" value="" style="endArrow=none;html=1;rounded=0;entryX=0;entryY=0.5;entryDx=0;entryDy=0;exitX=1;exitY=0.75;exitDx=0;exitDy=0;" edge="1" parent="1" source="s3N5RdAohSlhjSKMq-4z-10" target="4a6R4HAodq6OoiIso3Kq-21">
          <mxGeometry width="50" height="50" relative="1" as="geometry">
            <mxPoint x="400" y="290" as="sourcePoint" />
            <mxPoint x="450" y="240" as="targetPoint" />
          </mxGeometry>
        </mxCell>
        <mxCell id="4a6R4HAodq6OoiIso3Kq-23" value="Username" style="ellipse;whiteSpace=wrap;html=1;" vertex="1" parent="1">
          <mxGeometry x="60" y="300" width="80" height="50" as="geometry" />
        </mxCell>
        <mxCell id="4a6R4HAodq6OoiIso3Kq-24" value="User ID" style="ellipse;whiteSpace=wrap;html=1;" vertex="1" parent="1">
          <mxGeometry x="-20" y="330" width="70" height="50" as="geometry" />
        </mxCell>
        <mxCell id="4a6R4HAodq6OoiIso3Kq-25" value="" style="endArrow=none;html=1;rounded=0;entryX=0.5;entryY=1;entryDx=0;entryDy=0;exitX=0.5;exitY=0;exitDx=0;exitDy=0;" edge="1" parent="1" source="s3N5RdAohSlhjSKMq-4z-3" target="4a6R4HAodq6OoiIso3Kq-24">
          <mxGeometry width="50" height="50" relative="1" as="geometry">
            <mxPoint x="210" y="410" as="sourcePoint" />
            <mxPoint x="450" y="240" as="targetPoint" />
          </mxGeometry>
        </mxCell>
        <mxCell id="4a6R4HAodq6OoiIso3Kq-26" value="" style="endArrow=none;html=1;rounded=0;entryX=0.5;entryY=1;entryDx=0;entryDy=0;exitX=0.5;exitY=0;exitDx=0;exitDy=0;" edge="1" parent="1" source="s3N5RdAohSlhjSKMq-4z-3" target="4a6R4HAodq6OoiIso3Kq-23">
          <mxGeometry width="50" height="50" relative="1" as="geometry">
            <mxPoint x="400" y="290" as="sourcePoint" />
            <mxPoint x="450" y="240" as="targetPoint" />
          </mxGeometry>
        </mxCell>
        <mxCell id="4a6R4HAodq6OoiIso3Kq-27" value="Released Files Copied or Not" style="ellipse;whiteSpace=wrap;html=1;" vertex="1" parent="1">
          <mxGeometry x="470" y="360" width="120" height="50" as="geometry" />
        </mxCell>
        <mxCell id="4a6R4HAodq6OoiIso3Kq-28" value="Production" style="ellipse;whiteSpace=wrap;html=1;" vertex="1" parent="1">
          <mxGeometry x="750" y="370" width="120" height="50" as="geometry" />
        </mxCell>
        <mxCell id="4a6R4HAodq6OoiIso3Kq-29" value="" style="endArrow=none;html=1;rounded=0;entryX=0.5;entryY=1;entryDx=0;entryDy=0;exitX=0;exitY=0.25;exitDx=0;exitDy=0;" edge="1" parent="1" source="s3N5RdAohSlhjSKMq-4z-9" target="4a6R4HAodq6OoiIso3Kq-27">
          <mxGeometry width="50" height="50" relative="1" as="geometry">
            <mxPoint x="400" y="290" as="sourcePoint" />
            <mxPoint x="450" y="240" as="targetPoint" />
          </mxGeometry>
        </mxCell>
        <mxCell id="4a6R4HAodq6OoiIso3Kq-30" value="Failover Site" style="ellipse;whiteSpace=wrap;html=1;" vertex="1" parent="1">
          <mxGeometry x="800" y="470" width="110" height="50" as="geometry" />
        </mxCell>
        <mxCell id="4a6R4HAodq6OoiIso3Kq-31" value="Released files Executed" style="ellipse;whiteSpace=wrap;html=1;" vertex="1" parent="1">
          <mxGeometry x="605" y="340" width="110" height="50" as="geometry" />
        </mxCell>
        <mxCell id="4a6R4HAodq6OoiIso3Kq-32" value="" style="endArrow=none;html=1;rounded=0;entryX=0.5;entryY=1;entryDx=0;entryDy=0;exitX=0.5;exitY=0;exitDx=0;exitDy=0;" edge="1" parent="1" source="s3N5RdAohSlhjSKMq-4z-9" target="4a6R4HAodq6OoiIso3Kq-31">
          <mxGeometry width="50" height="50" relative="1" as="geometry">
            <mxPoint x="400" y="290" as="sourcePoint" />
            <mxPoint x="450" y="240" as="targetPoint" />
          </mxGeometry>
        </mxCell>
        <mxCell id="4a6R4HAodq6OoiIso3Kq-33" value="" style="endArrow=none;html=1;rounded=0;entryX=0.425;entryY=1.048;entryDx=0;entryDy=0;entryPerimeter=0;exitX=1;exitY=0.75;exitDx=0;exitDy=0;" edge="1" parent="1" source="s3N5RdAohSlhjSKMq-4z-9" target="4a6R4HAodq6OoiIso3Kq-28">
          <mxGeometry width="50" height="50" relative="1" as="geometry">
            <mxPoint x="400" y="280" as="sourcePoint" />
            <mxPoint x="450" y="230" as="targetPoint" />
          </mxGeometry>
        </mxCell>
        <mxCell id="4a6R4HAodq6OoiIso3Kq-34" value="" style="endArrow=none;html=1;rounded=0;entryX=0;entryY=0.5;entryDx=0;entryDy=0;" edge="1" parent="1" target="4a6R4HAodq6OoiIso3Kq-30">
          <mxGeometry width="50" height="50" relative="1" as="geometry">
            <mxPoint x="720" y="470" as="sourcePoint" />
            <mxPoint x="450" y="230" as="targetPoint" />
          </mxGeometry>
        </mxCell>
        <mxCell id="4a6R4HAodq6OoiIso3Kq-35" value="Department Head" style="ellipse;whiteSpace=wrap;html=1;" vertex="1" parent="1">
          <mxGeometry x="480" y="490" width="100" height="60" as="geometry" />
        </mxCell>
        <mxCell id="4a6R4HAodq6OoiIso3Kq-37" value="Unit Incharge" style="ellipse;whiteSpace=wrap;html=1;" vertex="1" parent="1">
          <mxGeometry x="640" y="520" width="90" height="50" as="geometry" />
        </mxCell>
        <mxCell id="4a6R4HAodq6OoiIso3Kq-38" value="" style="endArrow=none;html=1;rounded=0;entryX=0.5;entryY=0;entryDx=0;entryDy=0;" edge="1" parent="1" source="s3N5RdAohSlhjSKMq-4z-9" target="4a6R4HAodq6OoiIso3Kq-37">
          <mxGeometry width="50" height="50" relative="1" as="geometry">
            <mxPoint x="400" y="600" as="sourcePoint" />
            <mxPoint x="450" y="550" as="targetPoint" />
          </mxGeometry>
        </mxCell>
      </root>
    </mxGraphModel>
  </diagram>
</mxfile>
